<svg width="18" height="18" viewBox="0 0 18 18" fill="none" xmlns="http://www.w3.org/2000/svg">
<g clip-path="url(#clip0_961_888)">
<path d="M16.3125 0.421818H1.6875C1.35567 0.418441 1.03605 0.54684 0.798777 0.778841C0.561503 1.01084 0.425955 1.32749 0.421875 1.65932V16.3434C0.426693 16.6747 0.562565 16.9906 0.799758 17.222C1.03695 17.4534 1.35615 17.5815 1.6875 17.5781H16.3125C16.6444 17.5807 16.9638 17.4519 17.2009 17.2197C17.4381 16.9876 17.5737 16.671 17.5781 16.3392V1.6551C17.5722 1.32425 17.4359 1.00911 17.1989 0.77817C16.962 0.547234 16.6434 0.419171 16.3125 0.421818Z" fill="#0076B2"/>
<path d="M2.96156 6.85266H5.50828V15.0469H2.96156V6.85266ZM4.23563 2.77454C4.52772 2.77454 4.81326 2.86117 5.05611 3.02348C5.29896 3.18579 5.48821 3.41648 5.59993 3.68637C5.71164 3.95626 5.7408 4.25322 5.68371 4.53968C5.62663 4.82614 5.48586 5.08924 5.27922 5.29568C5.07257 5.50213 4.80934 5.64265 4.52283 5.69946C4.23631 5.75628 3.93938 5.72683 3.6696 5.61486C3.39981 5.50289 3.1693 5.31341 3.00723 5.07041C2.84515 4.8274 2.75879 4.54179 2.75906 4.24969C2.75944 3.85833 2.91517 3.48312 3.19204 3.20651C3.46891 2.92991 3.84426 2.77454 4.23563 2.77454ZM7.10578 6.85266H9.54703V7.97766H9.58078C9.9211 7.3336 10.7508 6.65438 11.9897 6.65438C14.5688 6.64875 15.0469 8.3461 15.0469 10.5469V15.0469H12.5002V11.0602C12.5002 10.1109 12.4833 8.88891 11.1769 8.88891C9.87047 8.88891 9.64828 9.92391 9.64828 10.9983V15.0469H7.10578V6.85266Z" fill="white"/>
</g>
<defs>
<clipPath id="clip0_961_888">
<rect width="18" height="18" fill="white"/>
</clipPath>
</defs>
</svg>
