<svg width="152" height="176" viewBox="0 0 152 176" fill="none" xmlns="http://www.w3.org/2000/svg">
<path d="M38.7351 1.21279C38.8814 0.542986 39.5558 0 40.2414 0H73.7586C74.4442 0 74.8814 0.542986 74.7351 1.21279L67.5835 33.9582C67.4372 34.628 66.7628 35.171 66.0772 35.171H32.56C31.8744 35.171 31.4372 34.628 31.5835 33.9582L38.7351 1.21279Z" fill="#0000EE"/>
<path d="M82.1834 1.21279C82.3297 0.542986 83.0041 0 83.6897 0H139.552C147.779 0 153.025 6.51583 151.27 14.5535L131.669 104.3C131.523 104.97 130.848 105.513 130.163 105.513H98.4011C97.7155 105.513 97.0412 106.056 96.8949 106.726L89.7433 139.471C89.597 140.141 90.0342 140.684 90.7198 140.684H122.481C123.167 140.684 123.604 141.227 123.458 141.897L116.306 174.642C116.16 175.312 115.486 175.855 114.8 175.855H81.2828C80.5972 175.855 80.16 175.312 80.3063 174.642L87.4579 141.897C87.6042 141.227 87.167 140.684 86.4814 140.684H52.9642C52.2786 140.684 51.8414 140.141 51.9877 139.471L59.1393 106.726C59.2856 106.056 59.96 105.513 60.6455 105.513H94.1628C94.8484 105.513 95.5228 104.97 95.669 104.3L109.178 42.4477C110.055 38.4289 107.432 35.171 103.319 35.171H76.0083C75.3227 35.171 74.8855 34.628 75.0318 33.9582L82.1834 1.21279Z" fill="#0000EE"/>
<path d="M30.9708 42.4477C30.2852 42.4477 29.6108 42.9907 29.4645 43.6605L0.858015 174.642C0.711726 175.312 1.14893 175.855 1.83452 175.855H35.3518C36.0374 175.855 36.7117 175.312 36.858 174.642L65.4645 43.6605C65.6108 42.9907 65.1736 42.4477 64.488 42.4477H30.9708Z" fill="#0000EE"/>
</svg>
