<svg width="12" height="13" viewBox="0 0 12 13" fill="none" xmlns="http://www.w3.org/2000/svg">
<path d="M11 0.333328H1C0.734784 0.333328 0.48043 0.438685 0.292893 0.626221C0.105357 0.813758 0 1.06811 0 1.33333V4.83333C0 8.12833 1.595 10.1252 2.93313 11.2202C4.37437 12.399 5.80813 12.799 5.87063 12.8158C5.95656 12.8392 6.04719 12.8392 6.13313 12.8158C6.19563 12.799 7.6275 12.399 9.07063 11.2202C10.405 10.1252 12 8.12833 12 4.83333V1.33333C12 1.06811 11.8946 0.813758 11.7071 0.626221C11.5196 0.438685 11.2652 0.333328 11 0.333328ZM11 4.83333C11 7.1502 10.1462 9.03083 8.4625 10.4221C7.72955 11.0256 6.89597 11.4953 6 11.8096C5.11576 11.5008 4.29247 11.0395 3.5675 10.4465C1.86375 9.0527 1 7.16458 1 4.83333V1.33333H11V4.83333ZM3.14625 6.68708C3.05243 6.59326 2.99972 6.46601 2.99972 6.33333C2.99972 6.20065 3.05243 6.0734 3.14625 5.97958C3.24007 5.88576 3.36732 5.83305 3.5 5.83305C3.63268 5.83305 3.75993 5.88576 3.85375 5.97958L5 7.12645L8.14625 3.97958C8.1927 3.93312 8.24786 3.89627 8.30855 3.87113C8.36925 3.84599 8.4343 3.83305 8.5 3.83305C8.5657 3.83305 8.63075 3.84599 8.69145 3.87113C8.75214 3.89627 8.8073 3.93312 8.85375 3.97958C8.90021 4.02603 8.93706 4.08118 8.9622 4.14188C8.98734 4.20258 9.00028 4.26763 9.00028 4.33333C9.00028 4.39903 8.98734 4.46408 8.9622 4.52478C8.93706 4.58547 8.90021 4.64062 8.85375 4.68708L5.35375 8.18708C5.30731 8.23357 5.25217 8.27045 5.19147 8.29561C5.13077 8.32077 5.06571 8.33372 5 8.33372C4.93429 8.33372 4.86923 8.32077 4.80853 8.29561C4.74783 8.27045 4.69269 8.23357 4.64625 8.18708L3.14625 6.68708Z" fill="#1F1E1B"/>
</svg>
