<svg width="174" height="40" viewBox="0 0 174 40" fill="none" xmlns="http://www.w3.org/2000/svg">
<path fill-rule="evenodd" clip-rule="evenodd" d="M0.203759 0C0.091226 0 0 0.0895429 0 0.2V38.2488L4.24198 19.1842C4.26599 19.0763 4.37668 18.9888 4.48922 18.9888H9.99071C10.1032 18.9888 10.175 19.0763 10.151 19.1842L5.51935 40H12.6509L13.761 35.0111C13.785 34.9032 13.7132 34.8157 13.6007 34.8157H8.0992C7.98666 34.8157 7.9149 34.7283 7.93892 34.6203L9.11278 29.3447C9.13679 29.2368 9.24748 29.1493 9.36001 29.1493H14.8615C14.974 29.1493 15.0847 29.0618 15.1087 28.9539L17.326 18.9888C17.4701 18.3413 17.0395 17.8164 16.3643 17.8164H11.8816C11.7691 17.8164 11.6973 17.729 11.7214 17.621L12.8952 12.3454C12.9192 12.2375 13.0299 12.15 13.1425 12.15H22.3116C23.662 12.15 24.5231 13.1998 24.235 14.4947L21.0177 28.9539C20.9937 29.0618 20.883 29.1493 20.7705 29.1493H15.5572C15.4446 29.1493 15.334 29.2368 15.3099 29.3447L14.1361 34.6203C14.1121 34.7282 14.1838 34.8157 14.2964 34.8157H19.5097C19.6222 34.8157 19.694 34.9032 19.67 35.0111L18.5599 40H40.548C40.6606 40 40.7518 39.9105 40.7518 39.8V0.2C40.7518 0.0895431 40.6606 0 40.548 0H0.203759ZM6.01089 12.15C5.89836 12.15 5.78767 12.2375 5.76365 12.3454L4.58979 17.621C4.56578 17.729 4.63754 17.8164 4.75008 17.8164H10.2516C10.3641 17.8164 10.4748 17.729 10.4988 17.621L11.6727 12.3454C11.6967 12.2375 11.6249 12.15 11.5124 12.15H6.01089Z" fill="#0000EE"/>
<path d="M53.977 16.099H50.8683V30.7227H53.977V22.8615C53.977 21.434 54.2436 20.4114 54.7421 19.7589L54.7423 19.7586C55.4469 18.8334 56.2906 18.3887 57.2803 18.3887C57.7977 18.3887 58.2069 18.5777 58.5255 18.9599L58.5271 18.9618L58.5287 18.9637C58.8585 19.3399 59.0316 19.8371 59.0316 20.4738C59.0316 20.5558 59.0269 20.6781 59.017 20.8429L59.0043 21.0547H62.2297L62.2442 20.87C62.264 20.6166 62.2746 20.4337 62.2746 20.3273C62.2746 19.0215 61.85 17.9428 60.9912 17.1097C60.1424 16.2668 59.0435 15.85 57.7131 15.85C56.2666 15.85 55.0187 16.374 53.977 17.4091V16.099Z" fill="#0000EE"/>
<path fill-rule="evenodd" clip-rule="evenodd" d="M70.9896 23.9102H81.0095L81.0237 23.7251C81.0535 23.3347 81.069 23.0545 81.069 22.8898C81.069 20.5387 80.5258 18.721 79.4066 17.4698C78.2832 16.214 76.6433 15.6 74.5227 15.6C72.2041 15.6 70.4403 16.3667 69.2698 17.9224L69.2694 17.9228L69.2692 17.9232C68.186 19.3775 67.648 21.1095 67.648 23.1096C67.648 25.4774 68.2693 27.3483 69.5378 28.6946L69.5383 28.6952L69.5388 28.6957C70.8197 30.034 72.6049 30.6924 74.8659 30.6924C76.5376 30.6924 77.8734 30.4063 78.8531 29.813L78.8537 29.8126L78.8544 29.8122C79.8432 29.203 80.3958 28.322 80.5011 27.1853L80.5213 26.9672H77.2175L77.1572 27.0585C76.7688 27.6478 76.0951 27.9633 75.0748 27.9633C73.865 27.9633 72.8873 27.6114 72.1245 26.9183C71.3639 26.2176 70.9812 25.3208 70.9805 24.2111L70.9896 23.9102ZM76.8571 19.1799L76.8582 19.181L76.8594 19.1821C77.4073 19.6947 77.706 20.3604 77.7466 21.1957H71.0091C71.1445 20.3479 71.5071 19.6779 72.0906 19.1726L72.0912 19.1721L72.0918 19.1715C72.7262 18.613 73.5263 18.3291 74.5077 18.3291C75.4991 18.3291 76.2751 18.6176 76.8571 19.1799Z" fill="#0000EE"/>
<path d="M150.674 15.7539H143.866V18.8346H147.401V30.3775H150.674V15.7539Z" fill="#0000EE"/>
<path d="M150.674 9.25H147.401V13.2096H150.674V9.25Z" fill="#0000EE"/>
<path fill-rule="evenodd" clip-rule="evenodd" d="M132.104 20.0408V21.0566H129.219C127.229 21.0566 125.619 21.5029 124.409 22.4165C123.203 23.3249 122.598 24.5563 122.598 26.0906C122.598 27.4529 123.093 28.5602 124.087 29.3922L124.088 29.3926L124.088 29.3929C125.089 30.2217 126.408 30.6266 128.025 30.6266C129.567 30.6266 130.929 30.1492 132.104 29.1984V30.3775H135.213V20.993C135.213 19.0863 134.787 17.6685 133.884 16.7931C132.982 15.9181 131.518 15.5049 129.547 15.5049C127.566 15.5049 126.031 15.8202 124.969 16.4768C123.894 17.1416 123.323 18.1447 123.255 19.4594L123.244 19.6695H126.469L126.516 19.5348C126.693 19.032 127.022 18.6577 127.512 18.4051C128.007 18.1496 128.676 18.0143 129.532 18.0143C130.435 18.0143 131.074 18.1961 131.485 18.5258C131.888 18.8491 132.104 19.3413 132.104 20.0408ZM128.801 23.61H132.104V24.3621C132.104 25.4211 131.719 26.306 130.944 27.0297C130.168 27.7541 129.219 28.1172 128.085 28.1172C127.395 28.1172 126.842 27.9088 126.407 27.5004C125.981 27.0819 125.766 26.5584 125.766 25.9148C125.766 25.2226 126.033 24.6754 126.57 24.2554C127.121 23.8313 127.859 23.61 128.801 23.61Z" fill="#0000EE"/>
<path d="M110.664 24.992V9.25H107.555V24.2742C107.555 26.3524 107.96 27.9092 108.812 28.9003C109.671 29.8994 111.033 30.3775 112.848 30.3775H115.784V27.6631H113.639C112.606 27.6631 111.87 27.4297 111.393 26.9981C110.918 26.5695 110.664 25.9137 110.664 24.992Z" fill="#0000EE"/>
<path d="M95.8735 19.9783H99.1808L99.1426 19.7464C98.9263 18.4316 98.3197 17.3973 97.3186 16.66C96.3296 15.9144 95.059 15.55 93.5242 15.55C91.5579 15.55 89.9531 16.2517 88.7284 17.6558C87.5058 19.0475 86.9032 20.865 86.9032 23.0889C86.9032 24.2236 87.0858 25.329 87.4509 26.4041L87.4513 26.4051L87.4516 26.4062C87.8268 27.471 88.3323 28.3376 88.9735 28.9977C90.0455 30.121 91.5422 30.6717 93.4346 30.6717C95.0173 30.6717 96.354 30.2346 97.4306 29.3507C98.509 28.4652 99.0828 27.3288 99.1451 25.9542L99.1545 25.7453H95.8337L95.8139 25.9236C95.75 26.4968 95.4923 26.9733 95.0329 27.3611C94.5737 27.7487 94.0342 27.9426 93.4048 27.9426C92.3335 27.9426 91.5223 27.537 90.9458 26.7252C90.3719 25.9028 90.0716 24.7041 90.0716 23.1035C90.0716 21.4467 90.3766 20.2401 90.9547 19.4521C91.524 18.6762 92.3782 18.2791 93.554 18.2791C94.1333 18.2791 94.6011 18.4128 94.9702 18.6675C95.3394 18.9223 95.6269 19.3098 95.8249 19.8464L95.8735 19.9783Z" fill="#0000EE"/>
<path d="M162.136 15.7539H159.027V30.3775H162.136V20.5242C162.136 19.6217 162.287 18.9795 162.561 18.5683C162.826 18.1719 163.217 17.9703 163.767 17.9703C164.191 17.9703 164.474 18.0876 164.655 18.2904C164.841 18.4982 164.952 18.8303 164.952 19.323V30.3775H168.06V20.5975C168.06 19.6701 168.213 19.0089 168.491 18.5852C168.758 18.1766 169.153 17.9703 169.707 17.9703C170.128 17.9703 170.41 18.0919 170.592 18.3053C170.78 18.5254 170.891 18.8773 170.891 19.3963V30.3775H174V19.3963C174 18.2471 173.691 17.3029 173.055 16.5844C172.415 15.862 171.555 15.5049 170.498 15.5049C169.284 15.5049 168.267 15.8467 167.462 16.5395C167.15 16.1697 166.834 15.9036 166.512 15.7587C166.152 15.5834 165.659 15.5049 165.051 15.5049C163.995 15.5049 163.022 15.8722 162.136 16.5918V15.7539Z" fill="#0000EE"/>
</svg>
